<?xml version="1.0" encoding="utf-8"?>
<!-- Generator: Adobe Illustrator 21.1.0, SVG Export Plug-In . SVG Version: 6.00 Build 0)  -->
<svg version="1.1" id="Layer_1" xmlns="http://www.w3.org/2000/svg" xmlns:xlink="http://www.w3.org/1999/xlink" x="0px" y="0px"
	 viewBox="0 0 16 16" style="enable-background:new 0 0 16 16;" xml:space="preserve">
<style type="text/css">
	.st0{fill:#FF0000;}
</style>
<path class="st0" d="M7.5,1C6.1,1,5,2.1,5,3.5v5.6c-0.6,0.6-1,1.4-1,2.4C4,13.4,5.6,15,7.5,15s3.5-1.6,3.5-3.5c0-0.9-0.4-1.7-1-2.4
	V3.5C10,2.1,8.9,1,7.5,1z M7.5,2C8.3,2,9,2.7,9,3.5V4H7v1h2v1H7v1h2v1H7v1h2v0.3c0,0.1,0.1,0.3,0.2,0.4c0.5,0.5,0.8,1.1,0.8,1.8
	c0,1.4-1.1,2.5-2.5,2.5S5,12.9,5,11.5c0-0.7,0.3-1.4,0.8-1.9C6,9.5,6,9.4,6,9.3V3.5C6,2.7,6.7,2,7.5,2z"/>
</svg>
