<svg id="Layer_1" data-name="Layer 1" xmlns="http://www.w3.org/2000/svg" viewBox="0 0 303.0405 90.5785"><defs><style>.cls-1,.cls-2,.cls-4{fill:none;stroke:#fff;stroke-linejoin:round;}.cls-1,.cls-2{stroke-width:3px;}.cls-2,.cls-4{stroke-linecap:round;}.cls-3{fill:#fff;}.cls-4{stroke-width:2px;}</style></defs><title>vhor_bar</title><line class="cls-1" x1="19.2856" y1="89.0785" x2="19.2837" y2="89.0774"/><line class="cls-1" x1="283.7554" y1="89.0773" x2="283.7554" y2="89.0773"/><line class="cls-1" x1="19.2837" y1="89.0774" x2="19.2837" y2="89.0774"/><path class="cls-1" d="M263.6762,70.877" transform="translate(-4.21 -13.3999)"/><path class="cls-1" d="M232.07,46.5987" transform="translate(-4.21 -13.3999)"/><line class="cls-1" x1="19.2837" y1="89.0774" x2="19.2856" y2="89.0785"/><path class="cls-2" d="M287.9654,102.4773a152.7139,152.7139,0,0,0-264.4717,0l.002.0011" transform="translate(-4.21 -13.3999)"/><polygon class="cls-3" points="151.52 12.752 162.563 0 140.476 0 151.52 12.752"/><line class="cls-4" x1="259.4662" y1="57.4771" x2="268.4921" y2="48.4512"/><line class="cls-4" x1="43.5729" y1="57.4771" x2="34.548" y2="48.4522"/><line class="cls-4" x1="125.0056" y1="15.0557" x2="122.7903" y2="2.4922"/><line class="cls-4" x1="178.0334" y1="15.0557" x2="180.2488" y2="2.4919"/><line class="cls-4" x1="203.7435" y1="21.9395" x2="208.1121" y2="9.937"/><line class="cls-4" x1="99.2955" y1="21.9395" x2="94.9272" y2="9.9376"/><line class="cls-2" x1="283.7554" y1="89.0773" x2="301.5405" y2="78.8091"/><line class="cls-2" x1="1.5" y1="78.8099" x2="19.2837" y2="89.0774"/><line class="cls-2" x1="75.1794" y1="33.1987" x2="64.9054" y2="15.4037"/><line class="cls-2" x1="227.8597" y1="33.1987" x2="238.1342" y2="15.4028"/></svg>